<svg xmlns="http://www.w3.org/2000/svg" xmlns:xlink="http://www.w3.org/1999/xlink" class="railroad" viewBox="0 0 498 133">
<style type="text/css">
svg.railroad {
background-color: hsl(30, 20%, 95%);
background-size: 15px 15px;
background-image: linear-gradient(to right, rgba(30, 30, 30, .05) 1px, transparent 1px),
		  linear-gradient(to bottom, rgba(30, 30, 30, .05) 1px, transparent 1px);
}

svg.railroad rect.railroad_canvas {
stroke-width: 0px;
fill: none;
}

svg.railroad path {
stroke-width: 3px;
stroke: black;
fill: none;
}

svg.railroad .debug {
stroke-width: 1px;
stroke: red;
}

svg.railroad text {
font: 14px monospace;
text-anchor: middle;
}

svg.railroad .nonterminal text {
font-weight: bold;
}

svg.railroad text.comment {
font: italic 12px monospace;
}

svg.railroad rect {
stroke-width: 3px;
stroke: black;
fill:hsl(-290, 70%, 90%);
}

svg.railroad g.labeledbox &gt; rect {
stroke-width: 1px;
stroke: grey;
stroke-dasharray: 5px;
fill:rgba(90, 90, 150, .1);
}
</style>
<rect width="100%" height="100%" class="railroad_canvas"/>
<g class="sequence">
<g class="verticalgrid">
<g class="labeledbox">
<rect x="10" y="10" height="113" width="478"/>
<path d=" M 10 72 h 8 m 462 0 h 8"/>
<g class="nonterminal">
<rect x="18" y="18" height="22" width="100"/>
<text x="68" y="34">
byte-array</text>
</g>
<g class="sequence">
<g class="sequence">
<g class="terminal">
<rect x="18" y="61" height="22" width="108" rx="10" ry="10"/>
<text x="72" y="77">
BracketOpen</text>
</g>
<g class="sequence">
<g class="repeat">
<path d=" M 136 72 h 12 m 76 0 h 12 m -12 0 a 12 12 0 0 1 12 12 v 8 a 12 12 0 0 1 -12 12 m -60 0 h -16 a 12 12 0 0 1 -12 -12 v -8 a 12 12 0 0 1 12 -12"/>
<g class="terminal">
<rect x="164" y="93" height="22" width="60" rx="10" ry="10"/>
<text x="194" y="109">
Comma</text>
</g>
<g class="terminal">
<rect x="148" y="61" height="22" width="76" rx="10" ry="10"/>
<text x="186" y="77">
Num&lt;u8&gt;</text>
</g>
</g>
<g class="optional">
<path d=" M 246 72 h 24 m -24 0 a 12 12 0 0 0 12 -12 v 0 a 12 12 0 0 1 12 -12 h 60 m -27 0 l -5 -5 m 0 10 l 5 -5 m 27 0 a 12 12 0 0 1 12 12 v 0 a 12 12 0 0 0 12 12 h -24"/>
<g class="terminal">
<rect x="270" y="61" height="22" width="60" rx="10" ry="10"/>
<text x="300" y="77">
Comma</text>
</g>
</g>
<path d=" M 236 72 h 10"/>
</g>
<path d=" M 126 72 h 10"/>
</g>
<g class="terminal">
<rect x="364" y="61" height="22" width="116" rx="10" ry="10"/>
<text x="422" y="77">
BracketClose</text>
</g>
<path d=" M 354 72 h 10"/>
</g>
</g>
</g>
</g>
</svg>
