<svg xmlns="http://www.w3.org/2000/svg" xmlns:xlink="http://www.w3.org/1999/xlink" class="railroad" viewBox="0 0 326 594">
<style type="text/css">
svg.railroad {
background-color: hsl(30, 20%, 95%);
background-size: 15px 15px;
background-image: linear-gradient(to right, rgba(30, 30, 30, .05) 1px, transparent 1px),
		  linear-gradient(to bottom, rgba(30, 30, 30, .05) 1px, transparent 1px);
}

svg.railroad rect.railroad_canvas {
stroke-width: 0px;
fill: none;
}

svg.railroad path {
stroke-width: 3px;
stroke: black;
fill: none;
}

svg.railroad .debug {
stroke-width: 1px;
stroke: red;
}

svg.railroad text {
font: 14px monospace;
text-anchor: middle;
}

svg.railroad .nonterminal text {
font-weight: bold;
}

svg.railroad text.comment {
font: italic 12px monospace;
}

svg.railroad rect {
stroke-width: 3px;
stroke: black;
fill:hsl(-290, 70%, 90%);
}

svg.railroad g.labeledbox &gt; rect {
stroke-width: 1px;
stroke: grey;
stroke-dasharray: 5px;
fill:rgba(90, 90, 150, .1);
}
</style>
<rect width="100%" height="100%" class="railroad_canvas"/>
<g class="sequence">
<g class="verticalgrid">
<g class="choice">
<path d=" M 10 21 h 24 m 60 0 h 222 m -108 0 l -5 -5 m 0 10 l 5 -5 m 108 0"/>
<g class="nonterminal">
<rect x="34" y="10" height="22" width="60"/>
<text x="64" y="26">
range</text>
</g>
<path d=" M 10 21 a 12 12 0 0 1 12 12 v 9 m 282 0 v -9 a 12 12 0 0 1 12 -12"/>
<path d=" M 22 42 v 33 m 282 0 v -33"/>
<path d=" M 22 75 v 33 m 282 0 v -33"/>
<path d=" M 22 108 v 33 m 282 0 v -33"/>
<path d=" M 22 178 v 74 m 0 -34 l -5 -5 m 10 0 l -5 5 m 0 34 m 282 0 v -74 m 0 40 l -5 5 m 10 0 l -5 -5 m 0 -40"/>
<path d=" M 22 289 v 74 m 0 -34 l -5 -5 m 10 0 l -5 5 m 0 34 m 282 0 v -74 m 0 40 l -5 5 m 10 0 l -5 -5 m 0 -40"/>
<path d=" M 22 363 v 33 m 282 0 v -33"/>
<path d=" M 22 396 v 33 m 282 0 v -33"/>
<path d=" M 22 429 v 33 m 282 0 v -33"/>
<path d=" M 22 462 v 33 m 282 0 v -33"/>
<path d=" M 22 495 v 33 m 282 0 v -33"/>
<path d=" M 22 528 v 33 m 282 0 v -33"/>
<path d=" M 22 42 v 0 a 12 12 0 0 0 12 12 m 92 0 h 166 m -80 0 l -5 -5 m 0 10 l 5 -5 m 80 0 a 12 12 0 0 0 12 -12 v 0"/>
<g class="terminal">
<rect x="34" y="43" height="22" width="92" rx="10" ry="10"/>
<text x="80" y="59">
base type</text>
</g>
<path d=" M 22 75 v 0 a 12 12 0 0 0 12 12 m 116 0 h 142 m -68 0 l -5 -5 m 0 10 l 5 -5 m 68 0 a 12 12 0 0 0 12 -12 v 0"/>
<g class="terminal">
<rect x="34" y="76" height="22" width="116" rx="10" ry="10"/>
<text x="92" y="92">
integer type</text>
</g>
<path d=" M 22 108 v 0 a 12 12 0 0 0 12 12 m 68 0 h 190 m -92 0 l -5 -5 m 0 10 l 5 -5 m 92 0 a 12 12 0 0 0 12 -12 v 0"/>
<g class="terminal">
<rect x="34" y="109" height="22" width="68" rx="10" ry="10"/>
<text x="68" y="125">
number</text>
</g>
<path d=" M 22 141 v 37 a 12 12 0 0 0 12 12 m 250 0 h 8 a 12 12 0 0 0 12 -12 v -37"/>
<g class="labeledbox">
<rect x="34" y="141" height="101" width="250"/>
<path d=" M 34 190 h 8 m 234 0 h 8"/>
<g class="nonterminal">
<rect x="42" y="149" height="22" width="132"/>
<text x="108" y="165">
default number</text>
</g>
<g class="sequence">
<g class="terminal">
<rect x="42" y="179" height="22" width="76" rx="10" ry="10"/>
<text x="80" y="195">
Default</text>
</g>
<g class="choice">
<path d=" M 128 190 h 24 m 68 0 h 56 m -25 0 l -5 -5 m 0 10 l 5 -5 m 25 0"/>
<g class="terminal">
<rect x="152" y="179" height="22" width="68" rx="10" ry="10"/>
<text x="186" y="195">
number</text>
</g>
<path d=" M 128 190 a 12 12 0 0 1 12 12 v 9 m 124 0 v -9 a 12 12 0 0 1 12 -12"/>
<path d=" M 140 211 v 0 a 12 12 0 0 0 12 12 m 100 0 h 0 a 12 12 0 0 0 12 -12 v 0"/>
<g class="terminal">
<rect x="152" y="212" height="22" width="100" rx="10" ry="10"/>
<text x="202" y="228">
Underscore</text>
</g>
</g>
<path d=" M 118 190 h 10"/>
</g>
</g>
<path d=" M 22 252 v 37 a 12 12 0 0 0 12 12 m 258 0 h 0 a 12 12 0 0 0 12 -12 v -37"/>
<g class="labeledbox">
<rect x="34" y="252" height="101" width="258"/>
<path d=" M 34 301 h 8 m 242 0 h 8"/>
<g class="nonterminal">
<rect x="42" y="260" height="22" width="148"/>
<text x="116" y="276">
catch-all number</text>
</g>
<g class="sequence">
<g class="terminal">
<rect x="42" y="290" height="22" width="84" rx="10" ry="10"/>
<text x="84" y="306">
CatchAll</text>
</g>
<g class="choice">
<path d=" M 136 301 h 24 m 68 0 h 56 m -25 0 l -5 -5 m 0 10 l 5 -5 m 25 0"/>
<g class="terminal">
<rect x="160" y="290" height="22" width="68" rx="10" ry="10"/>
<text x="194" y="306">
number</text>
</g>
<path d=" M 136 301 a 12 12 0 0 1 12 12 v 9 m 124 0 v -9 a 12 12 0 0 1 12 -12"/>
<path d=" M 148 322 v 0 a 12 12 0 0 0 12 12 m 100 0 h 0 a 12 12 0 0 0 12 -12 v 0"/>
<g class="terminal">
<rect x="160" y="323" height="22" width="100" rx="10" ry="10"/>
<text x="210" y="339">
Underscore</text>
</g>
</g>
<path d=" M 126 301 h 10"/>
</g>
</g>
<path d=" M 22 363 v 0 a 12 12 0 0 0 12 12 m 100 0 h 158 m -76 0 l -5 -5 m 0 10 l 5 -5 m 76 0 a 12 12 0 0 0 12 -12 v 0"/>
<g class="nonterminal">
<rect x="34" y="364" height="22" width="100"/>
<text x="84" y="380">
byte array</text>
</g>
<path d=" M 22 396 v 0 a 12 12 0 0 0 12 12 m 60 0 h 198 m -96 0 l -5 -5 m 0 10 l 5 -5 m 96 0 a 12 12 0 0 0 12 -12 v 0"/>
<g class="terminal">
<rect x="34" y="397" height="22" width="60" rx="10" ry="10"/>
<text x="64" y="413">
Allow</text>
</g>
<path d=" M 22 429 v 0 a 12 12 0 0 0 12 12 m 68 0 h 190 m -92 0 l -5 -5 m 0 10 l 5 -5 m 92 0 a 12 12 0 0 0 12 -12 v 0"/>
<g class="terminal">
<rect x="34" y="430" height="22" width="68" rx="10" ry="10"/>
<text x="68" y="446">
access</text>
</g>
<path d=" M 22 462 v 0 a 12 12 0 0 0 12 12 m 100 0 h 158 m -76 0 l -5 -5 m 0 10 l 5 -5 m 76 0 a 12 12 0 0 0 12 -12 v 0"/>
<g class="terminal">
<rect x="34" y="463" height="22" width="100" rx="10" ry="10"/>
<text x="84" y="479">
byte order</text>
</g>
<path d=" M 22 495 v 0 a 12 12 0 0 0 12 12 m 100 0 h 158 m -76 0 l -5 -5 m 0 10 l 5 -5 m 76 0 a 12 12 0 0 0 12 -12 v 0"/>
<g class="terminal">
<rect x="34" y="496" height="22" width="100" rx="10" ry="10"/>
<text x="84" y="512">
Underscore</text>
</g>
<path d=" M 22 528 v 0 a 12 12 0 0 0 12 12 m 68 0 h 190 m -92 0 l -5 -5 m 0 10 l 5 -5 m 92 0 a 12 12 0 0 0 12 -12 v 0"/>
<g class="nonterminal">
<rect x="34" y="529" height="22" width="68"/>
<text x="68" y="545">
string</text>
</g>
<path d=" M 22 561 v 0 a 12 12 0 0 0 12 12 m 116 0 h 142 m -68 0 l -5 -5 m 0 10 l 5 -5 m 68 0 a 12 12 0 0 0 12 -12 v 0"/>
<g class="terminal">
<rect x="34" y="562" height="22" width="116" rx="10" ry="10"/>
<text x="92" y="578">
address mode</text>
</g>
</g>
</g>
</g>
</svg>
